<svg width="20" height="23" viewBox="0 0 20 23" fill="none" xmlns="http://www.w3.org/2000/svg">
<path d="M0.470914 0.875334C0.729998 0.577085 1.08135 0.409537 1.44769 0.409537C1.81404 0.409537 2.16538 0.577085 2.42447 0.875334L9.73716 9.29602L17.0499 0.875334C17.1773 0.723386 17.3298 0.602187 17.4983 0.518809C17.6669 0.435431 17.8482 0.391544 18.0316 0.389709C18.2151 0.387873 18.397 0.428126 18.5668 0.508118C18.7366 0.58811 18.8908 0.70624 19.0205 0.855615C19.1503 1.00499 19.2528 1.18262 19.3223 1.37813C19.3918 1.57365 19.4267 1.78314 19.4251 1.99438C19.4235 2.20562 19.3854 2.41438 19.313 2.60848C19.2406 2.80258 19.1354 2.97812 19.0034 3.12488L11.6907 11.5456L19.0034 19.9662C19.2551 20.2663 19.3943 20.6682 19.3912 21.0853C19.388 21.5024 19.2427 21.9014 18.9866 22.1964C18.7304 22.4914 18.3839 22.6587 18.0217 22.6623C17.6594 22.6659 17.3104 22.5056 17.0499 22.2158L9.73716 13.7951L2.42447 22.2158C2.1639 22.5056 1.81491 22.6659 1.45266 22.6623C1.09042 22.6587 0.743899 22.4914 0.487743 22.1964C0.231588 21.9014 0.0862884 21.5024 0.0831406 21.0853C0.0799928 20.6682 0.219248 20.2663 0.470914 19.9662L7.78361 11.5456L0.470914 3.12488C0.211908 2.82654 0.0664062 2.42196 0.0664062 2.00011C0.0664062 1.57825 0.211908 1.17367 0.470914 0.875334Z" fill="#250041"/>
</svg>
