<svg width="48" height="48" viewBox="0 0 48 48" fill="none" xmlns="http://www.w3.org/2000/svg">
<path fill-rule="evenodd" clip-rule="evenodd" d="M4.79995 9.60001C4.3756 9.60001 3.96864 9.76858 3.66858 10.0686C3.36852 10.3687 3.19995 10.7757 3.19995 11.2C3.19995 11.6244 3.36852 12.0313 3.66858 12.3314C3.96864 12.6314 4.3756 12.8 4.79995 12.8H43.1999C43.6243 12.8 44.0313 12.6314 44.3313 12.3314C44.6314 12.0313 44.7999 11.6244 44.7999 11.2C44.7999 10.7757 44.6314 10.3687 44.3313 10.0686C44.0313 9.76858 43.6243 9.60001 43.1999 9.60001H4.79995ZM3.19995 24C3.19995 23.5757 3.36852 23.1687 3.66858 22.8686C3.96864 22.5686 4.3756 22.4 4.79995 22.4H43.1999C43.6243 22.4 44.0313 22.5686 44.3313 22.8686C44.6314 23.1687 44.7999 23.5757 44.7999 24C44.7999 24.4244 44.6314 24.8313 44.3313 25.1314C44.0313 25.4314 43.6243 25.6 43.1999 25.6H4.79995C4.3756 25.6 3.96864 25.4314 3.66858 25.1314C3.36852 24.8313 3.19995 24.4244 3.19995 24ZM3.19995 36.8C3.19995 36.3757 3.36852 35.9687 3.66858 35.6686C3.96864 35.3686 4.3756 35.2 4.79995 35.2H43.1999C43.6243 35.2 44.0313 35.3686 44.3313 35.6686C44.6314 35.9687 44.7999 36.3757 44.7999 36.8C44.7999 37.2244 44.6314 37.6313 44.3313 37.9314C44.0313 38.2314 43.6243 38.4 43.1999 38.4H4.79995C4.3756 38.4 3.96864 38.2314 3.66858 37.9314C3.36852 37.6313 3.19995 37.2244 3.19995 36.8Z" fill="url(#paint0_linear_680_570)"/>
<defs>
<linearGradient id="paint0_linear_680_570" x1="24" y1="9.60001" x2="24" y2="38.4" gradientUnits="userSpaceOnUse">
<stop stop-color="#E93744"/>
<stop offset="1" stop-color="#DD1581"/>
</linearGradient>
</defs>
</svg>
