<?xml version="1.0" encoding="UTF-8" standalone="no"?>
<svg
   width="1440"
   height="205"
   viewBox="0 0 1440 205"
   fill="none"
   version="1.1"
   id="svg8"
   sodipodi:docname="headerShapes.svg"
   inkscape:version="1.2 (dc2aeda, 2022-05-15)"
   xmlns:inkscape="http://www.inkscape.org/namespaces/inkscape"
   xmlns:sodipodi="http://sodipodi.sourceforge.net/DTD/sodipodi-0.dtd"
   xmlns="http://www.w3.org/2000/svg"
   xmlns:svg="http://www.w3.org/2000/svg">
  <defs
     id="defs12" />
  <sodipodi:namedview
     id="namedview10"
     pagecolor="#ffffff"
     bordercolor="#000000"
     borderopacity="0.25"
     inkscape:showpageshadow="2"
     inkscape:pageopacity="0.0"
     inkscape:pagecheckerboard="0"
     inkscape:deskcolor="#d1d1d1"
     showgrid="false"
     inkscape:zoom="0.65312775"
     inkscape:cx="608.60988"
     inkscape:cy="140.86065"
     inkscape:window-width="1920"
     inkscape:window-height="1080"
     inkscape:window-x="0"
     inkscape:window-y="0"
     inkscape:window-maximized="0"
     inkscape:current-layer="svg8" />
  <rect
     style="fill:#ffffff"
     id="rect400"
     width="1667.6022"
     height="655.2464"
     x="-90.096382"
     y="-93.372612" />
  <path
     d="M 1530.91,120.01845 C 2085.11,-83.25945 941.309,-163.218 441.672,-163.218 -57.9645,-163.218 -463,-58.14955 -463,71.45945 c 0,129.608 209.023,130.082 545.1229,65.89 336.1001,-64.191 894.5861,185.947 1448.7871,-17.331 z"
     fill="#e9d8f5"
     id="path2" />
  <path
     d="m -124.202,16.456594 c -625.254,-75.3955 374.359,-92.2172 810.398,-144.941904 436.034,-52.7246 910.664,19.0785 1000.944,104.437904 90.29,85.36 40.02,135.914996 -298.01,129.105996 C 1051.1,98.249594 501.053,91.852594 -124.202,16.456594 Z"
     fill="#6d4789"
     id="path4" />
  <g
     id="g346"
     transform="translate(0,-156)">
    <g
       id="g342">
      <path
         d="M 1658.16,150.644 C 2251.9,24.6771 1028.49,-52.188 493.207,-52.188 -42.0748,-52.188 -478,40.2371 -478,120.553 c 0,80.315 222.038,88.581 582.117,48.803 360.078,-39.778 960.303,107.255 1554.043,-18.712 z"
         fill="#250041"
         id="path6" />
    </g>
  </g>
</svg>
