<svg width="24" height="24" viewBox="0 0 24 24" fill="none" xmlns="http://www.w3.org/2000/svg">
<circle cx="12" cy="12" r="12" fill="#343741"/>
<path d="M15.5 5H8.5C6.567 5 5 6.567 5 8.5V15.5C5 17.433 6.567 19 8.5 19H15.5C17.433 19 19 17.433 19 15.5V8.5C19 6.567 17.433 5 15.5 5Z" stroke="white" stroke-width="2" stroke-linecap="round" stroke-linejoin="round"/>
<path d="M15.9926 8H16M14.8835 11.6048C14.9747 12.2209 14.8696 12.85 14.5831 13.4028C14.2965 13.9556 13.8432 14.4039 13.2875 14.6839C12.7318 14.9639 12.1021 15.0613 11.4878 14.9624C10.8736 14.8635 10.3062 14.5732 9.8663 14.1328C9.4264 13.6924 9.1364 13.1244 9.03757 12.5095C8.93873 11.8947 9.03609 11.2643 9.31578 10.708C9.59548 10.1517 10.0433 9.69786 10.5955 9.41102C11.1477 9.12419 11.7762 9.01897 12.3916 9.11032C13.0193 9.2035 13.6004 9.49631 14.0492 9.94551C14.4979 10.3947 14.7904 10.9765 14.8835 11.6048Z" stroke="white" stroke-width="2" stroke-linecap="round" stroke-linejoin="round"/>
</svg>
