<svg width="30" height="25" viewBox="0 0 30 25" fill="none" xmlns="http://www.w3.org/2000/svg">
<mask id="mask0_3925_54433" style="mask-type:alpha" maskUnits="userSpaceOnUse" x="6" y="12" width="24" height="13">
<rect x="29.2012" y="24.1992" width="22.4" height="11.2" transform="rotate(-180 29.2012 24.1992)" fill="white"/>
</mask>
<g mask="url(#mask0_3925_54433)">
<path d="M28.6012 12.9992C28.6012 14.3912 28.327 15.7696 27.7943 17.0557C27.2616 18.3417 26.4808 19.5103 25.4965 20.4946C24.5122 21.4789 23.3437 22.2596 22.0576 22.7923C20.7716 23.325 19.3932 23.5992 18.0012 23.5992C16.6092 23.5992 15.2308 23.325 13.9447 22.7923C12.6587 22.2596 11.4901 21.4788 10.5058 20.4945C9.52153 19.5102 8.74074 18.3417 8.20805 17.0557C7.67535 15.7696 7.40117 14.3912 7.40117 12.9992" stroke="#FAFAFA" stroke-width="1.2" stroke-linecap="round"/>
</g>
<mask id="mask1_3925_54433" style="mask-type:alpha" maskUnits="userSpaceOnUse" x="6" y="1" width="24" height="13">
<rect x="6.79883" y="1.80078" width="22.4" height="11.2" fill="white"/>
</mask>
<g mask="url(#mask1_3925_54433)">
<path d="M7.39883 13.0008C7.39883 11.6088 7.673 10.2304 8.20571 8.94433C8.73841 7.65828 9.5192 6.48975 10.5035 5.50545C11.4878 4.52115 12.6563 3.74036 13.9424 3.20766C15.2284 2.67496 16.6068 2.40078 17.9988 2.40078C19.3908 2.40078 20.7692 2.67496 22.0553 3.20766C23.3413 3.74036 24.5099 4.52116 25.4942 5.50546C26.4785 6.48976 27.2593 7.6583 27.792 8.94435C28.3247 10.2304 28.5988 11.6088 28.5988 13.0008" stroke="#FAFAFA" stroke-width="1.2" stroke-linecap="round"/>
</g>
<rect x="17.9912" y="12.3438" width="6.8" height="1.2" rx="0.6" transform="rotate(45 17.9912 12.3438)" fill="#FAFAFA"/>
<rect x="22.7988" y="9.25" width="6.8" height="1.2" rx="0.6" transform="rotate(135 22.7988 9.25)" fill="#FAFAFA"/>
<rect x="28" y="12.3984" width="1.2" height="1.2" rx="0.6" fill="#FAFAFA"/>
<rect x="6.7998" y="12.3984" width="1.2" height="1.2" rx="0.6" fill="#FAFAFA"/>
<rect x="18.8584" y="13.1914" width="6.8" height="1.2" rx="0.6" transform="rotate(135 18.8584 13.1914)" fill="#FAFAFA"/>
<rect x="14.0498" y="8.39844" width="6.8" height="1.2" rx="0.6" transform="rotate(45 14.0498 8.39844)" fill="#FAFAFA"/>
</svg>
