<svg width="400" height="400" viewBox="0 0 400 400" fill="none" xmlns="http://www.w3.org/2000/svg">
<circle cx="200" cy="200" r="200" fill="none"/>
<path d="M252.912 61.8833C225.01 53.482 216.446 116.59 188.856 125.965C203.407 121.021 219.139 120.745 233.854 125.176C248.569 129.607 261.533 138.523 270.934 150.679L323.221 110.241C305.394 87.1911 280.813 70.2847 252.912 61.8833Z" fill="url(#paint0_linear_1237_1145)"/>
<path d="M166.741 327.937C194.271 337.489 252.91 300.699 233.399 266.568C218.656 270.904 202.927 270.527 188.408 265.49C173.889 260.452 114.685 317.483 72.7267 195.356C72.6332 224.495 81.6434 252.935 98.4986 276.705C115.354 300.474 139.212 318.386 166.741 327.937Z" fill="#E03333"/>
<path d="M72.728 195.356C72.6345 224.495 106.293 309.091 188.409 265.49C173.891 260.452 161.308 251.006 152.419 238.47C143.53 225.934 138.778 210.935 138.827 195.568C125.874 139.86 116.028 90.5127 99.0211 114.174C82.0138 137.835 72.8214 166.217 72.728 195.356Z" fill="url(#paint1_linear_1237_1145)"/>
<path d="M252.052 329.981C280.007 321.759 304.696 305.01 322.67 282.075L270.644 241.303C261.164 253.398 248.143 262.231 233.4 266.568C250.255 290.337 139.213 318.386 166.743 327.937C194.272 337.489 224.097 338.203 252.052 329.981Z" fill="url(#paint2_linear_1237_1145)"/>
<path d="M167.591 63.38C140.001 72.7547 169.701 129.092 152.693 152.753C161.663 140.275 174.306 130.909 188.857 125.965C203.407 121.021 219.139 120.745 233.854 125.176C216.027 102.126 280.813 70.2847 252.911 61.8833C225.01 53.482 195.181 54.0052 167.591 63.38Z" fill="url(#paint3_linear_1237_1145)"/>
<path d="M99.0217 114.174C82.0144 137.835 138.921 166.429 138.827 195.568C138.877 180.2 143.725 165.232 152.694 152.753C167.592 132.028 195.182 54.0055 167.592 63.3802C140.002 72.7549 116.029 90.513 99.0217 114.174Z" fill="url(#paint4_linear_1237_1145)"/>
<defs>
<linearGradient id="paint0_linear_1237_1145" x1="226.573" y1="116.084" x2="316.084" y2="106.294" gradientUnits="userSpaceOnUse">
<stop stop-color="#E93744"/>
<stop offset="1" stop-color="#DD1581"/>
</linearGradient>
<linearGradient id="paint1_linear_1237_1145" x1="130.569" y1="108.102" x2="130.569" y2="277.737" gradientUnits="userSpaceOnUse">
<stop stop-color="#E93744"/>
<stop offset="1" stop-color="#DD1581"/>
</linearGradient>
<linearGradient id="paint2_linear_1237_1145" x1="230.769" y1="55.9441" x2="297.902" y2="327.273" gradientUnits="userSpaceOnUse">
<stop stop-color="#DD1581"/>
<stop offset="0.0001" stop-color="#DD1581" stop-opacity="0.989583"/>
<stop offset="0.171875" stop-color="#DD1581" stop-opacity="0"/>
<stop offset="0.786458" stop-color="#DD1581" stop-opacity="0.979373"/>
<stop offset="1" stop-color="#DD1581" stop-opacity="0"/>
</linearGradient>
<linearGradient id="paint3_linear_1237_1145" x1="230.769" y1="55.9441" x2="297.902" y2="327.273" gradientUnits="userSpaceOnUse">
<stop stop-color="#DD1581"/>
<stop offset="0.0001" stop-color="#DD1581" stop-opacity="0.989583"/>
<stop offset="0.171875" stop-color="#DD1581" stop-opacity="0"/>
<stop offset="0.786458" stop-color="#DD1581" stop-opacity="0.979373"/>
<stop offset="1" stop-color="#DD1581" stop-opacity="0"/>
</linearGradient>
<linearGradient id="paint4_linear_1237_1145" x1="137.606" y1="62.6021" x2="137.606" y2="195.568" gradientUnits="userSpaceOnUse">
<stop stop-color="#E93744"/>
<stop offset="1" stop-color="#250041" stop-opacity="0"/>
</linearGradient>
</defs>
</svg>
